<svg xmlns="http://www.w3.org/2000/svg" xmlns:xlink="http://www.w3.org/1999/xlink" width="500" zoomAndPan="magnify" viewBox="0 0 375 225" height="300" preserveAspectRatio="xMidYMid meet" version="1.0"><defs><g/><clipPath id="7548a43534"><rect x="0" width="306" y="0" height="171"/></clipPath><clipPath id="dd3a243fe5"><path d="M 52.910156 97.6875 L 315.042969 97.6875 L 315.042969 121.34375 L 52.910156 121.34375 Z M 52.910156 97.6875 " clip-rule="nonzero"/></clipPath><clipPath id="51a65bef7b"><path d="M 0.910156 0.6875 L 263.042969 0.6875 L 263.042969 24.34375 L 0.910156 24.34375 Z M 0.910156 0.6875 " clip-rule="nonzero"/></clipPath><clipPath id="59393375d7"><rect x="0" width="264" y="0" height="25"/></clipPath><clipPath id="eda7886925"><path d="M 0.558594 4 L 13 4 L 13 16 L 0.558594 16 Z M 0.558594 4 " clip-rule="nonzero"/></clipPath><clipPath id="89a8621d5c"><rect x="0" width="250" y="0" height="21"/></clipPath></defs><path stroke-linecap="butt" transform="matrix(0.000000001309, -0.75, 0.75, 0.000000001309, 180.306408, 187.966776)" fill="none" stroke-linejoin="miter" d="M 0.00257603 0.497706 L 209.216126 0.497706 " stroke="#000000" stroke-width="1" stroke-opacity="1" stroke-miterlimit="4"/><g transform="matrix(1, 0, 0, 1, 51, 37)"><g clip-path="url(#7548a43534)"><g fill="#000000" fill-opacity="1"><g transform="translate(0.251325, 136.35434)"><g><path d="M 3.96875 -23.171875 C 3.96875 -28.640625 5.25 -33.554688 7.8125 -37.921875 C 10.375 -42.296875 13.660156 -46.269531 17.671875 -49.84375 C 21.679688 -53.414062 25.9375 -56.675781 30.4375 -59.625 C 34.945312 -62.582031 39.207031 -65.316406 43.21875 -67.828125 C 47.238281 -70.347656 50.523438 -72.753906 53.078125 -75.046875 C 55.640625 -77.347656 56.921875 -79.644531 56.921875 -81.9375 C 56.921875 -83.175781 56.609375 -84.082031 55.984375 -84.65625 C 55.367188 -85.226562 54.625 -85.515625 53.75 -85.515625 C 52.15625 -85.515625 50.675781 -84.804688 49.3125 -83.390625 C 47.945312 -81.984375 46.597656 -80.375 45.265625 -78.5625 C 43.941406 -76.75 42.507812 -75.132812 40.96875 -73.71875 C 39.425781 -72.3125 37.726562 -71.609375 35.875 -71.609375 C 34.019531 -71.609375 32.894531 -72.359375 32.5 -73.859375 C 32.101562 -75.359375 32.210938 -76.945312 32.828125 -78.625 C 34.859375 -83.925781 36.710938 -88.847656 38.390625 -93.390625 C 40.066406 -97.929688 41.71875 -102.34375 43.34375 -106.625 C 44.976562 -110.90625 46.65625 -115.335938 48.375 -119.921875 C 50.101562 -124.515625 52.023438 -129.546875 54.140625 -135.015625 L 55.46875 -135.015625 L 97.828125 -23.171875 C 100.734375 -15.929688 103.46875 -10.476562 106.03125 -6.8125 C 108.59375 -3.15625 111.898438 -1.328125 115.953125 -1.328125 L 115.953125 0 L 72.546875 0 L 72.546875 -1.328125 C 77.222656 -1.328125 80.773438 -1.941406 83.203125 -3.171875 C 85.628906 -4.410156 87.191406 -6.132812 87.890625 -8.34375 C 88.597656 -10.550781 88.6875 -13.109375 88.15625 -16.015625 C 87.632812 -18.929688 86.753906 -22.066406 85.515625 -25.421875 L 69.09375 -68.703125 C 69.625 -64.460938 69.890625 -59.164062 69.890625 -52.8125 C 69.890625 -42.132812 68.234375 -32.601562 64.921875 -24.21875 C 61.617188 -15.84375 56.851562 -9.269531 50.625 -4.5 C 44.40625 0.257812 36.882812 2.640625 28.0625 2.640625 C 22.945312 2.640625 18.597656 1.453125 15.015625 -0.921875 C 11.441406 -3.304688 8.707031 -6.460938 6.8125 -10.390625 C 4.914062 -14.316406 3.96875 -18.578125 3.96875 -23.171875 Z M 15.21875 -25.6875 C 15.21875 -19.507812 17.070312 -14.300781 20.78125 -10.0625 C 24.488281 -5.820312 29.5625 -3.703125 36 -3.703125 C 41.5625 -3.703125 46.375 -5.203125 50.4375 -8.203125 C 54.5 -11.203125 57.875 -15.128906 60.5625 -19.984375 C 63.25 -24.835938 65.253906 -30.132812 66.578125 -35.875 C 67.898438 -41.613281 68.5625 -47.171875 68.5625 -52.546875 C 68.5625 -57.492188 68.40625 -61.90625 68.09375 -65.78125 C 67.789062 -69.664062 67.023438 -73.550781 65.796875 -77.4375 L 49.765625 -119.671875 L 34.546875 -79.15625 C 33.660156 -76.863281 33.414062 -75.253906 33.8125 -74.328125 C 34.21875 -73.398438 34.945312 -72.9375 36 -72.9375 C 37.5 -72.9375 38.957031 -73.640625 40.375 -75.046875 C 41.789062 -76.460938 43.203125 -78.078125 44.609375 -79.890625 C 46.023438 -81.703125 47.503906 -83.3125 49.046875 -84.71875 C 50.585938 -86.132812 52.242188 -86.84375 54.015625 -86.84375 C 55.242188 -86.84375 56.273438 -86.421875 57.109375 -85.578125 C 57.953125 -84.742188 58.375 -83.441406 58.375 -81.671875 C 58.375 -78.765625 57.335938 -76.097656 55.265625 -73.671875 C 53.191406 -71.242188 50.519531 -68.878906 47.25 -66.578125 C 43.988281 -64.285156 40.503906 -61.859375 36.796875 -59.296875 C 33.085938 -56.742188 29.597656 -53.898438 26.328125 -50.765625 C 23.066406 -47.628906 20.398438 -44.03125 18.328125 -39.96875 C 16.253906 -35.914062 15.21875 -31.15625 15.21875 -25.6875 Z M 15.21875 -25.6875 "/></g></g></g><g fill="#000000" fill-opacity="1"><g transform="translate(155.00125, 136.35434)"><g><path d="M 3.96875 -131.046875 L 3.96875 -132.375 L 19.859375 -132.375 C 24.710938 -132.375 29.144531 -132.59375 33.15625 -133.03125 C 37.175781 -133.476562 41.238281 -133.921875 45.34375 -134.359375 C 49.445312 -134.796875 54.054688 -135.015625 59.171875 -135.015625 C 68.609375 -135.015625 76.59375 -133.207031 83.125 -129.59375 C 89.65625 -125.976562 94.617188 -121.054688 98.015625 -114.828125 C 101.421875 -108.609375 103.125 -101.570312 103.125 -93.71875 C 103.125 -88.332031 102.148438 -83.144531 100.203125 -78.15625 C 98.265625 -73.175781 95.375 -68.722656 91.53125 -64.796875 C 87.695312 -60.867188 82.953125 -57.753906 77.296875 -55.453125 C 71.648438 -53.160156 65.164062 -52.015625 57.84375 -52.015625 C 53.957031 -52.015625 50.03125 -52.367188 46.0625 -53.078125 C 42.09375 -53.785156 38.472656 -54.625 35.203125 -55.59375 C 31.941406 -56.5625 29.34375 -57.445312 27.40625 -58.25 L 27.40625 -36.796875 C 27.40625 -28.148438 27.625 -21.222656 28.0625 -16.015625 C 28.5 -10.804688 29.578125 -7.054688 31.296875 -4.765625 C 33.023438 -2.472656 35.785156 -1.328125 39.578125 -1.328125 L 39.578125 0 L 3.96875 0 L 3.96875 -1.328125 C 7.757812 -1.328125 10.515625 -2.472656 12.234375 -4.765625 C 13.960938 -7.054688 15.046875 -10.804688 15.484375 -16.015625 C 15.929688 -21.222656 16.15625 -28.148438 16.15625 -36.796875 L 16.15625 -95.578125 C 16.15625 -104.316406 15.929688 -111.265625 15.484375 -116.421875 C 15.046875 -121.585938 13.960938 -125.316406 12.234375 -127.609375 C 10.515625 -129.898438 7.757812 -131.046875 3.96875 -131.046875 Z M 27.40625 -59.5625 C 30.757812 -58.15625 34.835938 -56.988281 39.640625 -56.0625 C 44.453125 -55.132812 49.726562 -54.671875 55.46875 -54.671875 C 62.082031 -54.671875 67.679688 -55.925781 72.265625 -58.4375 C 76.859375 -60.957031 80.585938 -64.203125 83.453125 -68.171875 C 86.328125 -72.140625 88.425781 -76.375 89.75 -80.875 C 91.070312 -85.375 91.734375 -89.613281 91.734375 -93.59375 C 91.734375 -101.625 90.097656 -108.59375 86.828125 -114.5 C 83.566406 -120.414062 78.9375 -125.003906 72.9375 -128.265625 C 66.9375 -131.535156 59.832031 -133.171875 51.625 -133.171875 C 46.769531 -133.171875 42.53125 -132.835938 38.90625 -132.171875 C 35.289062 -131.515625 31.457031 -130.4375 27.40625 -128.9375 Z M 27.40625 -59.5625 "/></g></g></g></g></g><g clip-path="url(#dd3a243fe5)"><g transform="matrix(1, 0, 0, 1, 52, 97)"><g clip-path="url(#59393375d7)"><g clip-path="url(#51a65bef7b)"><path fill="#f8f8fc" d="M 0.910156 0.6875 L 263.089844 0.6875 L 263.089844 24.34375 L 0.910156 24.34375 Z M 0.910156 0.6875 " fill-opacity="1" fill-rule="nonzero"/></g></g></g></g><g transform="matrix(1, 0, 0, 1, 64, 99)"><g clip-path="url(#89a8621d5c)"><g clip-path="url(#eda7886925)"><g fill="#000000" fill-opacity="1"><g transform="translate(0.863787, 15.646761)"><g><path d="M 8.765625 -2.96875 L 2.578125 -2.96875 L 1.25 0 L 0.03125 0 L 5.109375 -11.09375 L 6.265625 -11.09375 L 11.328125 0 L 10.09375 0 Z M 8.328125 -3.90625 L 5.671875 -9.875 L 3.015625 -3.90625 Z M 8.328125 -3.90625 "/></g></g></g></g><g fill="#000000" fill-opacity="1"><g transform="translate(17.271828, 15.646761)"><g><path d="M 8.796875 -5.71875 C 9.523438 -5.5625 10.085938 -5.25 10.484375 -4.78125 C 10.878906 -4.3125 11.078125 -3.707031 11.078125 -2.96875 C 11.078125 -2.007812 10.722656 -1.273438 10.015625 -0.765625 C 9.316406 -0.253906 8.28125 0 6.90625 0 L 1.8125 0 L 1.8125 -11.09375 L 6.59375 -11.09375 C 7.820312 -11.09375 8.773438 -10.84375 9.453125 -10.34375 C 10.140625 -9.84375 10.484375 -9.140625 10.484375 -8.234375 C 10.484375 -7.617188 10.332031 -7.097656 10.03125 -6.671875 C 9.726562 -6.242188 9.316406 -5.925781 8.796875 -5.71875 Z M 2.984375 -10.125 L 2.984375 -6.09375 L 6.515625 -6.09375 C 7.410156 -6.09375 8.097656 -6.265625 8.578125 -6.609375 C 9.066406 -6.953125 9.3125 -7.453125 9.3125 -8.109375 C 9.3125 -8.765625 9.066406 -9.265625 8.578125 -9.609375 C 8.097656 -9.953125 7.410156 -10.125 6.515625 -10.125 Z M 6.890625 -0.96875 C 7.878906 -0.96875 8.628906 -1.132812 9.140625 -1.46875 C 9.648438 -1.8125 9.90625 -2.34375 9.90625 -3.0625 C 9.90625 -4.445312 8.898438 -5.140625 6.890625 -5.140625 L 2.984375 -5.140625 L 2.984375 -0.96875 Z M 6.890625 -0.96875 "/></g></g></g><g fill="#000000" fill-opacity="1"><g transform="translate(34.265742, 15.646761)"><g><path d="M 11.078125 -11.09375 L 11.078125 0 L 9.921875 0 L 9.921875 -5.125 L 2.984375 -5.125 L 2.984375 0 L 1.8125 0 L 1.8125 -11.09375 L 2.984375 -11.09375 L 2.984375 -6.140625 L 9.921875 -6.140625 L 9.921875 -11.09375 Z M 11.078125 -11.09375 "/></g></g></g><g fill="#000000" fill-opacity="1"><g transform="translate(52.193884, 15.646761)"><g><path d="M 1.8125 -11.09375 L 2.984375 -11.09375 L 2.984375 0 L 1.8125 0 Z M 1.8125 -11.09375 "/></g></g></g><g fill="#000000" fill-opacity="1"><g transform="translate(62.030624, 15.646761)"><g><path d="M 3 0.09375 C 2.363281 0.09375 1.773438 -0.0390625 1.234375 -0.3125 C 0.691406 -0.59375 0.253906 -0.984375 -0.078125 -1.484375 L 0.625 -2.28125 C 1.226562 -1.375 2.023438 -0.921875 3.015625 -0.921875 C 4.378906 -0.921875 5.0625 -1.734375 5.0625 -3.359375 L 5.0625 -10.078125 L 1.015625 -10.078125 L 1.015625 -11.09375 L 6.234375 -11.09375 L 6.234375 -3.40625 C 6.234375 -2.238281 5.957031 -1.363281 5.40625 -0.78125 C 4.863281 -0.195312 4.0625 0.09375 3 0.09375 Z M 3 0.09375 "/></g></g></g><g fill="#000000" fill-opacity="1"><g transform="translate(75.018425, 15.646761)"><g><path d="M 9.65625 -1.015625 L 9.65625 0 L 1.8125 0 L 1.8125 -11.09375 L 9.40625 -11.09375 L 9.40625 -10.078125 L 2.984375 -10.078125 L 2.984375 -6.125 L 8.71875 -6.125 L 8.71875 -5.140625 L 2.984375 -5.140625 L 2.984375 -1.015625 Z M 9.65625 -1.015625 "/></g></g></g><g fill="#000000" fill-opacity="1"><g transform="translate(90.666414, 15.646761)"><g><path d="M 9.65625 -1.015625 L 9.65625 0 L 1.8125 0 L 1.8125 -11.09375 L 9.40625 -11.09375 L 9.40625 -10.078125 L 2.984375 -10.078125 L 2.984375 -6.125 L 8.71875 -6.125 L 8.71875 -5.140625 L 2.984375 -5.140625 L 2.984375 -1.015625 Z M 9.65625 -1.015625 "/></g></g></g><g fill="#000000" fill-opacity="1"><g transform="translate(106.314403, 15.646761)"><g><path d="M 3.96875 -10.078125 L 0.0625 -10.078125 L 0.0625 -11.09375 L 9.03125 -11.09375 L 9.03125 -10.078125 L 5.140625 -10.078125 L 5.140625 0 L 3.96875 0 Z M 3.96875 -10.078125 "/></g></g></g><g fill="#000000" fill-opacity="1"><g transform="translate(120.458115, 15.646761)"><g/></g></g><g fill="#000000" fill-opacity="1"><g transform="translate(129.661486, 15.646761)"><g><path d="M 5.953125 -11.09375 C 7.367188 -11.09375 8.476562 -10.753906 9.28125 -10.078125 C 10.082031 -9.398438 10.484375 -8.46875 10.484375 -7.28125 C 10.484375 -6.101562 10.082031 -5.175781 9.28125 -4.5 C 8.476562 -3.832031 7.367188 -3.5 5.953125 -3.5 L 2.984375 -3.5 L 2.984375 0 L 1.8125 0 L 1.8125 -11.09375 Z M 5.921875 -4.53125 C 7.023438 -4.53125 7.863281 -4.769531 8.4375 -5.25 C 9.019531 -5.726562 9.3125 -6.40625 9.3125 -7.28125 C 9.3125 -8.1875 9.019531 -8.878906 8.4375 -9.359375 C 7.863281 -9.835938 7.023438 -10.078125 5.921875 -10.078125 L 2.984375 -10.078125 L 2.984375 -4.53125 Z M 5.921875 -4.53125 "/></g></g></g><g fill="#000000" fill-opacity="1"><g transform="translate(146.085361, 15.646761)"><g><path d="M 9.375 0 L 6.84375 -3.5625 C 6.5625 -3.53125 6.265625 -3.515625 5.953125 -3.515625 L 2.984375 -3.515625 L 2.984375 0 L 1.8125 0 L 1.8125 -11.09375 L 5.953125 -11.09375 C 7.367188 -11.09375 8.476562 -10.753906 9.28125 -10.078125 C 10.082031 -9.398438 10.484375 -8.46875 10.484375 -7.28125 C 10.484375 -6.414062 10.265625 -5.6875 9.828125 -5.09375 C 9.390625 -4.5 8.765625 -4.066406 7.953125 -3.796875 L 10.65625 0 Z M 5.921875 -4.515625 C 7.023438 -4.515625 7.863281 -4.753906 8.4375 -5.234375 C 9.019531 -5.722656 9.3125 -6.40625 9.3125 -7.28125 C 9.3125 -8.1875 9.019531 -8.878906 8.4375 -9.359375 C 7.863281 -9.835938 7.023438 -10.078125 5.921875 -10.078125 L 2.984375 -10.078125 L 2.984375 -4.515625 Z M 5.921875 -4.515625 "/></g></g></g><g fill="#000000" fill-opacity="1"><g transform="translate(162.588413, 15.646761)"><g><path d="M 8.765625 -2.96875 L 2.578125 -2.96875 L 1.25 0 L 0.03125 0 L 5.109375 -11.09375 L 6.265625 -11.09375 L 11.328125 0 L 10.09375 0 Z M 8.328125 -3.90625 L 5.671875 -9.875 L 3.015625 -3.90625 Z M 8.328125 -3.90625 "/></g></g></g><g fill="#000000" fill-opacity="1"><g transform="translate(178.996463, 15.646761)"><g><path d="M 1.8125 -11.09375 L 6.328125 -11.09375 C 7.492188 -11.09375 8.523438 -10.859375 9.421875 -10.390625 C 10.328125 -9.921875 11.023438 -9.265625 11.515625 -8.421875 C 12.015625 -7.578125 12.265625 -6.617188 12.265625 -5.546875 C 12.265625 -4.460938 12.015625 -3.5 11.515625 -2.65625 C 11.023438 -1.820312 10.328125 -1.171875 9.421875 -0.703125 C 8.523438 -0.234375 7.492188 0 6.328125 0 L 1.8125 0 Z M 6.265625 -1.015625 C 7.234375 -1.015625 8.082031 -1.207031 8.8125 -1.59375 C 9.539062 -1.976562 10.101562 -2.507812 10.5 -3.1875 C 10.90625 -3.875 11.109375 -4.660156 11.109375 -5.546875 C 11.109375 -6.429688 10.90625 -7.210938 10.5 -7.890625 C 10.101562 -8.578125 9.539062 -9.113281 8.8125 -9.5 C 8.082031 -9.882812 7.234375 -10.078125 6.265625 -10.078125 L 2.984375 -10.078125 L 2.984375 -1.015625 Z M 6.265625 -1.015625 "/></g></g></g><g fill="#000000" fill-opacity="1"><g transform="translate(197.130444, 15.646761)"><g><path d="M 11.078125 -11.09375 L 11.078125 0 L 9.921875 0 L 9.921875 -5.125 L 2.984375 -5.125 L 2.984375 0 L 1.8125 0 L 1.8125 -11.09375 L 2.984375 -11.09375 L 2.984375 -6.140625 L 9.921875 -6.140625 L 9.921875 -11.09375 Z M 11.078125 -11.09375 "/></g></g></g><g fill="#000000" fill-opacity="1"><g transform="translate(215.058586, 15.646761)"><g><path d="M 8.765625 -2.96875 L 2.578125 -2.96875 L 1.25 0 L 0.03125 0 L 5.109375 -11.09375 L 6.265625 -11.09375 L 11.328125 0 L 10.09375 0 Z M 8.328125 -3.90625 L 5.671875 -9.875 L 3.015625 -3.90625 Z M 8.328125 -3.90625 "/></g></g></g><g fill="#000000" fill-opacity="1"><g transform="translate(231.466627, 15.646761)"><g><path d="M 11.078125 -11.09375 L 11.078125 0 L 10.109375 0 L 2.984375 -9 L 2.984375 0 L 1.8125 0 L 1.8125 -11.09375 L 2.765625 -11.09375 L 9.921875 -2.09375 L 9.921875 -11.09375 Z M 11.078125 -11.09375 "/></g></g></g></g></g></svg>