<svg xmlns="http://www.w3.org/2000/svg" xmlns:xlink="http://www.w3.org/1999/xlink" width="500" zoomAndPan="magnify" viewBox="0 0 375 374.999991" height="500" preserveAspectRatio="xMidYMid meet" version="1.0"><defs><g/><clipPath id="6bdc7037c6"><rect x="0" width="90" y="0" height="15"/></clipPath><clipPath id="1736b38293"><path d="M 1 0.0390625 L 8 0.0390625 L 8 10 L 1 10 Z M 1 0.0390625 " clip-rule="nonzero"/></clipPath><clipPath id="fb3245ed31"><path d="M 12 0.0390625 L 21 0.0390625 L 21 11 L 12 11 Z M 12 0.0390625 " clip-rule="nonzero"/></clipPath><clipPath id="ad7d9a0473"><path d="M 24 0.0390625 L 33 0.0390625 L 33 10 L 24 10 Z M 24 0.0390625 " clip-rule="nonzero"/></clipPath><clipPath id="b12a75897c"><path d="M 37 0.0390625 L 45 0.0390625 L 45 10 L 37 10 Z M 37 0.0390625 " clip-rule="nonzero"/></clipPath><clipPath id="45f0f58c04"><path d="M 49 0.0390625 L 57 0.0390625 L 57 10 L 49 10 Z M 49 0.0390625 " clip-rule="nonzero"/></clipPath><clipPath id="77e9a4bdb9"><path d="M 61 0.0390625 L 69 0.0390625 L 69 10 L 61 10 Z M 61 0.0390625 " clip-rule="nonzero"/></clipPath><clipPath id="dd1c754e1b"><path d="M 73 0.0390625 L 81 0.0390625 L 81 10 L 73 10 Z M 73 0.0390625 " clip-rule="nonzero"/></clipPath><clipPath id="3e7d996e8a"><rect x="0" width="86" y="0" height="14"/></clipPath><clipPath id="69785cf759"><rect x="0" width="129" y="0" height="104"/></clipPath></defs><path stroke-linecap="butt" transform="matrix(0, 0.75, -0.75, 0, 109.500451, 109.250465)" fill="none" stroke-linejoin="miter" d="M -0.000619768 0.500601 L 206.473352 0.500601 " stroke="#000000" stroke-width="1" stroke-opacity="1" stroke-miterlimit="4"/><path stroke-linecap="butt" transform="matrix(0, 0.75, -0.75, 0, 266.246881, 109.251622)" fill="none" stroke-linejoin="miter" d="M -0.00216217 0.50105 L 205.268685 0.50105 " stroke="#000000" stroke-width="1" stroke-opacity="1" stroke-miterlimit="4"/><path stroke-linecap="butt" transform="matrix(0.749989, -0.0040423, 0.0040423, 0.749989, 109.443235, 109.193774)" fill="none" stroke-linejoin="miter" d="M 0.0000641535 0.502058 L 78.928311 0.500378 " stroke="#000000" stroke-width="1" stroke-opacity="1" stroke-miterlimit="4"/><path stroke-linecap="butt" transform="matrix(-0.75, 0, 0, -0.75, 265.543787, 263.258683)" fill="none" stroke-linejoin="miter" d="M 0.00109108 0.50116 L 83.938597 0.50116 " stroke="#000000" stroke-width="1" stroke-opacity="1" stroke-miterlimit="4"/><g transform="matrix(1, 0, 0, 1, 174, 103)"><g clip-path="url(#6bdc7037c6)"><g fill="#000000" fill-opacity="1"><g transform="translate(1.632203, 10.644433)"><g><path d="M 0.125 0 L 3.65625 -9.078125 L 4.9375 -9.078125 L 8.453125 0 L 7.3125 0 L 6.484375 -2.171875 L 2.109375 -2.171875 L 1.28125 0 Z M 2.421875 -3.125 L 6.171875 -3.125 L 4.3125 -8.015625 L 4.28125 -8.015625 Z M 2.421875 -3.125 "/></g></g></g><g fill="#000000" fill-opacity="1"><g transform="translate(14.064281, 10.644433)"><g><path d="M 0.765625 0 L 0.765625 -9.078125 L 4.9375 -9.078125 C 5.832031 -9.078125 6.523438 -8.863281 7.015625 -8.4375 C 7.515625 -8.007812 7.765625 -7.40625 7.765625 -6.625 C 7.765625 -6.132812 7.640625 -5.71875 7.390625 -5.375 C 7.140625 -5.039062 6.785156 -4.816406 6.328125 -4.703125 L 6.328125 -4.6875 C 6.878906 -4.570312 7.300781 -4.328125 7.59375 -3.953125 C 7.894531 -3.585938 8.046875 -3.113281 8.046875 -2.53125 C 8.046875 -1.726562 7.773438 -1.101562 7.234375 -0.65625 C 6.691406 -0.21875 5.925781 0 4.9375 0 Z M 1.84375 -5.15625 L 4.796875 -5.15625 C 5.410156 -5.15625 5.878906 -5.28125 6.203125 -5.53125 C 6.535156 -5.789062 6.703125 -6.15625 6.703125 -6.625 C 6.703125 -7.101562 6.535156 -7.472656 6.203125 -7.734375 C 5.878906 -7.992188 5.410156 -8.125 4.796875 -8.125 L 1.84375 -8.125 Z M 1.84375 -0.953125 L 4.796875 -0.953125 C 5.484375 -0.953125 6.019531 -1.09375 6.40625 -1.375 C 6.789062 -1.65625 6.984375 -2.0625 6.984375 -2.59375 C 6.984375 -3.09375 6.789062 -3.484375 6.40625 -3.765625 C 6.019531 -4.054688 5.484375 -4.203125 4.796875 -4.203125 L 1.84375 -4.203125 Z M 1.84375 -0.953125 "/></g></g></g><g fill="#000000" fill-opacity="1"><g transform="translate(26.35483, 10.644433)"><g><path d="M 0.765625 0 L 0.765625 -9.078125 L 1.84375 -9.078125 L 1.84375 -5.203125 L 6.859375 -5.203125 L 6.859375 -9.078125 L 7.9375 -9.078125 L 7.9375 0 L 6.859375 0 L 6.859375 -4.25 L 1.84375 -4.25 L 1.84375 0 Z M 0.765625 0 "/></g></g></g><g fill="#000000" fill-opacity="1"><g transform="translate(38.915579, 10.644433)"><g><path d="M 0.765625 0 L 0.765625 -9.078125 L 1.84375 -9.078125 L 1.84375 0 Z M 0.765625 0 "/></g></g></g><g fill="#000000" fill-opacity="1"><g transform="translate(45.390271, 10.644433)"><g><path d="M 3.125 0.265625 C 2.375 0.265625 1.742188 0.0625 1.234375 -0.34375 C 0.734375 -0.75 0.40625 -1.316406 0.25 -2.046875 L 1.203125 -2.453125 C 1.273438 -1.890625 1.472656 -1.453125 1.796875 -1.140625 C 2.128906 -0.828125 2.5625 -0.671875 3.09375 -0.671875 C 3.613281 -0.671875 4.015625 -0.835938 4.296875 -1.171875 C 4.578125 -1.515625 4.71875 -2 4.71875 -2.625 L 4.71875 -9.078125 L 5.8125 -9.078125 L 5.8125 -2.53125 C 5.8125 -1.644531 5.578125 -0.957031 5.109375 -0.46875 C 4.640625 0.0195312 3.976562 0.265625 3.125 0.265625 Z M 3.125 0.265625 "/></g></g></g><g fill="#000000" fill-opacity="1"><g transform="translate(55.699303, 10.644433)"><g><path d="M 0.765625 0 L 0.765625 -9.078125 L 6.984375 -9.078125 L 6.984375 -8.125 L 1.8125 -8.125 L 1.8125 -5.15625 L 6.46875 -5.15625 L 6.46875 -4.21875 L 1.8125 -4.21875 L 1.8125 -0.953125 L 7.109375 -0.953125 L 7.109375 0 Z M 0.765625 0 "/></g></g></g><g fill="#000000" fill-opacity="1"><g transform="translate(66.98623, 10.644433)"><g><path d="M 0.765625 0 L 0.765625 -9.078125 L 6.984375 -9.078125 L 6.984375 -8.125 L 1.8125 -8.125 L 1.8125 -5.15625 L 6.46875 -5.15625 L 6.46875 -4.21875 L 1.8125 -4.21875 L 1.8125 -0.953125 L 7.109375 -0.953125 L 7.109375 0 Z M 0.765625 0 "/></g></g></g><g fill="#000000" fill-opacity="1"><g transform="translate(78.273156, 10.644433)"><g><path d="M 3.171875 0 L 3.171875 -8.125 L 0.125 -8.125 L 0.125 -9.078125 L 7.28125 -9.078125 L 7.28125 -8.125 L 4.234375 -8.125 L 4.234375 0 Z M 3.171875 0 "/></g></g></g></g></g><g transform="matrix(1, 0, 0, 1, 115, 257)"><g clip-path="url(#3e7d996e8a)"><g clip-path="url(#1736b38293)"><g fill="#000000" fill-opacity="1"><g transform="translate(0.368791, 9.849977)"><g><path d="M 0.765625 0 L 0.765625 -9.03125 L 4.40625 -9.03125 C 5.039062 -9.03125 5.59375 -8.921875 6.0625 -8.703125 C 6.53125 -8.484375 6.890625 -8.175781 7.140625 -7.78125 C 7.398438 -7.394531 7.53125 -6.9375 7.53125 -6.40625 C 7.53125 -5.882812 7.398438 -5.425781 7.140625 -5.03125 C 6.890625 -4.632812 6.53125 -4.328125 6.0625 -4.109375 C 5.59375 -3.898438 5.039062 -3.796875 4.40625 -3.796875 L 1.296875 -3.796875 L 1.296875 0 Z M 1.296875 -4.3125 L 4.40625 -4.3125 C 5.195312 -4.3125 5.828125 -4.5 6.296875 -4.875 C 6.765625 -5.257812 7 -5.769531 7 -6.40625 C 7 -7.039062 6.765625 -7.550781 6.296875 -7.9375 C 5.828125 -8.320312 5.195312 -8.515625 4.40625 -8.515625 L 1.296875 -8.515625 Z M 1.296875 -4.3125 "/></g></g></g></g><g clip-path="url(#fb3245ed31)"><g fill="#000000" fill-opacity="1"><g transform="translate(12.015993, 9.849977)"><g><path d="M 7.296875 0.25 C 6.992188 0.25 6.765625 0.15625 6.609375 -0.03125 C 6.460938 -0.226562 6.34375 -0.472656 6.25 -0.765625 L 5.734375 -2.734375 C 5.640625 -3.109375 5.472656 -3.421875 5.234375 -3.671875 C 5.003906 -3.929688 4.664062 -4.0625 4.21875 -4.0625 L 1.296875 -4.0625 L 1.296875 0 L 0.765625 0 L 0.765625 -9.03125 L 4.78125 -9.03125 C 5.664062 -9.03125 6.375 -8.804688 6.90625 -8.359375 C 7.4375 -7.910156 7.703125 -7.304688 7.703125 -6.546875 C 7.703125 -5.921875 7.488281 -5.390625 7.0625 -4.953125 C 6.644531 -4.515625 6.082031 -4.25 5.375 -4.15625 L 5.375 -4.140625 C 5.601562 -4.003906 5.789062 -3.8125 5.9375 -3.5625 C 6.082031 -3.320312 6.195312 -3.050781 6.28125 -2.75 L 6.78125 -0.859375 C 6.820312 -0.660156 6.882812 -0.503906 6.96875 -0.390625 C 7.050781 -0.285156 7.175781 -0.234375 7.34375 -0.234375 C 7.632812 -0.234375 7.878906 -0.398438 8.078125 -0.734375 L 8.4375 -0.390625 C 8.269531 -0.148438 8.085938 0.015625 7.890625 0.109375 C 7.691406 0.203125 7.492188 0.25 7.296875 0.25 Z M 1.296875 -4.578125 L 4.78125 -4.578125 C 5.5 -4.578125 6.070312 -4.753906 6.5 -5.109375 C 6.9375 -5.460938 7.15625 -5.941406 7.15625 -6.546875 C 7.15625 -7.140625 6.9375 -7.613281 6.5 -7.96875 C 6.070312 -8.332031 5.5 -8.515625 4.78125 -8.515625 L 1.296875 -8.515625 Z M 1.296875 -4.578125 "/></g></g></g></g><g clip-path="url(#ad7d9a0473)"><g fill="#000000" fill-opacity="1"><g transform="translate(24.306541, 9.849977)"><g><path d="M 0.125 0 L 3.6875 -9.03125 L 4.375 -9.03125 L 7.9375 0 L 7.375 0 L 6.46875 -2.34375 L 1.609375 -2.34375 L 0.6875 0 Z M 1.796875 -2.84375 L 6.28125 -2.84375 L 4.0625 -8.515625 L 4.03125 -8.515625 Z M 1.796875 -2.84375 "/></g></g></g></g><g clip-path="url(#b12a75897c)"><g fill="#000000" fill-opacity="1"><g transform="translate(36.236814, 9.849977)"><g><path d="M 0.765625 0 L 0.765625 -9.03125 L 3.609375 -9.03125 C 5.140625 -9.03125 6.316406 -8.640625 7.140625 -7.859375 C 7.960938 -7.078125 8.375 -5.957031 8.375 -4.5 C 8.375 -3.050781 7.960938 -1.9375 7.140625 -1.15625 C 6.316406 -0.382812 5.140625 0 3.609375 0 Z M 1.296875 -0.5 L 3.609375 -0.5 C 4.960938 -0.5 6.003906 -0.84375 6.734375 -1.53125 C 7.472656 -2.226562 7.84375 -3.21875 7.84375 -4.5 C 7.84375 -5.800781 7.472656 -6.796875 6.734375 -7.484375 C 6.003906 -8.171875 4.960938 -8.515625 3.609375 -8.515625 L 1.296875 -8.515625 Z M 1.296875 -0.5 "/></g></g></g></g><g clip-path="url(#45f0f58c04)"><g fill="#000000" fill-opacity="1"><g transform="translate(48.913366, 9.849977)"><g><path d="M 0.765625 0 L 0.765625 -9.03125 L 1.296875 -9.03125 L 1.296875 -4.953125 L 6.9375 -4.953125 L 6.9375 -9.03125 L 7.46875 -9.03125 L 7.46875 0 L 6.9375 0 L 6.9375 -4.453125 L 1.296875 -4.453125 L 1.296875 0 Z M 0.765625 0 "/></g></g></g></g><g clip-path="url(#77e9a4bdb9)"><g fill="#000000" fill-opacity="1"><g transform="translate(61.010907, 9.849977)"><g><path d="M 0.125 0 L 3.6875 -9.03125 L 4.375 -9.03125 L 7.9375 0 L 7.375 0 L 6.46875 -2.34375 L 1.609375 -2.34375 L 0.6875 0 Z M 1.796875 -2.84375 L 6.28125 -2.84375 L 4.0625 -8.515625 L 4.03125 -8.515625 Z M 1.796875 -2.84375 "/></g></g></g></g><g clip-path="url(#dd1c754e1b)"><g fill="#000000" fill-opacity="1"><g transform="translate(72.94118, 9.849977)"><g><path d="M 0.765625 0 L 0.765625 -9.03125 L 1.59375 -9.03125 L 6.90625 -0.5625 L 6.9375 -0.5625 L 6.9375 -9.03125 L 7.46875 -9.03125 L 7.46875 0 L 6.640625 0 L 1.328125 -8.453125 L 1.296875 -8.453125 L 1.296875 0 Z M 0.765625 0 "/></g></g></g></g></g></g><g transform="matrix(1, 0, 0, 1, 132, 135)"><g clip-path="url(#69785cf759)"><g fill="#000000" fill-opacity="1"><g transform="translate(0.870261, 77.726731)"><g><path d="M 35.78125 -11.34375 L 13.53125 -11.34375 L 9.4375 0 L 2.421875 0 L 20.84375 -50.703125 L 28.53125 -50.703125 L 46.890625 0 L 39.875 0 Z M 33.875 -16.75 L 24.65625 -42.5 L 15.4375 -16.75 Z M 33.875 -16.75 "/></g></g></g><g fill="#000000" fill-opacity="1"><g transform="translate(67.730498, 77.726731)"><g><path d="M 39.71875 -36.0625 C 39.71875 -31.820312 38.265625 -28.296875 35.359375 -25.484375 C 32.460938 -22.679688 28.039062 -21.28125 22.09375 -21.28125 L 12.296875 -21.28125 L 12.296875 0 L 5.640625 0 L 5.640625 -50.984375 L 22.09375 -50.984375 C 27.84375 -50.984375 32.21875 -49.59375 35.21875 -46.8125 C 38.21875 -44.039062 39.71875 -40.457031 39.71875 -36.0625 Z M 22.09375 -26.78125 C 25.800781 -26.78125 28.53125 -27.582031 30.28125 -29.1875 C 32.039062 -30.800781 32.921875 -33.09375 32.921875 -36.0625 C 32.921875 -42.351562 29.3125 -45.5 22.09375 -45.5 L 12.296875 -45.5 L 12.296875 -26.78125 Z M 22.09375 -26.78125 "/></g></g></g></g></g></svg>